<svg width="312" height="56" viewBox="0 0 312 56" fill="none" xmlns="http://www.w3.org/2000/svg">
<path d="M283.188 30.8796V11.241H293.005C293.962 11.241 294.92 11.4805 295.878 11.9595C296.853 12.4208 297.66 13.1304 298.299 14.0884C298.955 15.0286 299.283 16.1995 299.283 17.601C299.283 19.0202 298.946 20.2265 298.272 21.22C297.598 22.2135 296.756 22.9674 295.745 23.4819C294.734 23.9964 293.723 24.2536 292.712 24.2536H285.742V20.8741H291.488C292.127 20.8741 292.756 20.5991 293.377 20.0491C294.016 19.4992 294.335 18.6831 294.335 17.601C294.335 16.4656 294.016 15.685 293.377 15.2592C292.756 14.8334 292.153 14.6206 291.568 14.6206H287.764V30.8796H283.188ZM295.266 21.6724L300.028 30.8796H295L290.424 21.6724H295.266ZM290.717 42.5883C287.772 42.5883 285.014 42.0383 282.443 40.9384C279.871 39.8385 277.61 38.3129 275.659 36.3614C273.708 34.41 272.182 32.1481 271.083 29.5757C269.983 27.0034 269.433 24.2447 269.433 21.2998C269.433 18.3549 269.983 15.5963 271.083 13.0239C272.182 10.4516 273.708 8.18968 275.659 6.23823C277.61 4.28679 279.871 2.76112 282.443 1.66121C285.014 0.561305 287.772 0.0113525 290.717 0.0113525C293.661 0.0113525 296.419 0.561305 298.991 1.66121C301.562 2.76112 303.824 4.28679 305.775 6.23823C307.726 8.18968 309.251 10.4516 310.351 13.0239C311.45 15.5963 312 18.3549 312 21.2998C312 24.2447 311.45 27.0034 310.351 29.5757C309.251 32.1481 307.726 34.41 305.775 36.3614C303.824 38.3129 301.562 39.8385 298.991 40.9384C296.419 42.0383 293.661 42.5883 290.717 42.5883ZM290.717 37.3194C293.661 37.3194 296.339 36.6009 298.751 35.1639C301.181 33.7092 303.114 31.7755 304.551 29.3628C305.987 26.9324 306.706 24.2447 306.706 21.2998C306.706 18.3549 305.987 15.6761 304.551 13.2634C303.114 10.833 301.181 8.89929 298.751 7.46232C296.339 6.0076 293.661 5.28025 290.717 5.28025C287.772 5.28025 285.085 6.0076 282.655 7.46232C280.226 8.89929 278.292 10.833 276.856 13.2634C275.419 15.6761 274.701 18.3549 274.701 21.2998C274.701 24.2447 275.419 26.9324 276.856 29.3628C278.292 31.7755 280.226 33.7092 282.655 35.1639C285.085 36.6009 287.772 37.3194 290.717 37.3194Z" fill="white"/>
<path d="M232.01 55.255H223.284L242.891 0.756531H252.389L271.996 55.255H263.27L247.866 10.6557H247.44L232.01 55.255ZM233.473 33.9133H261.78V40.8321H233.473V33.9133Z" fill="white"/>
<path d="M185.359 7.83495V0.756531H227.527V7.83495H210.527V55.255H202.332V7.83495H185.359Z" fill="white"/>
<path d="M139.667 7.83495V0.756531H181.834V7.83495H164.834V55.255H156.64V7.83495H139.667Z" fill="white"/>
<path d="M100.219 55.255V0.756531H134.379V7.83495H108.439V24.44H132.596V31.4918H108.439V48.1766H134.698V55.255H100.219Z" fill="white"/>
<path d="M54.8308 55.255V0.756531H74.252C78.4732 0.756531 81.9761 1.48389 84.7607 2.9386C87.563 4.39331 89.6559 6.40685 91.0393 8.9792C92.4228 11.5338 93.1145 14.4876 93.1145 17.8405C93.1145 21.1757 92.4139 24.1118 91.0127 26.6486C89.6293 29.1678 87.5364 31.1281 84.7341 32.5296C81.9495 33.9311 78.4466 34.6318 74.2254 34.6318H59.5132V27.5534H73.4805C76.1409 27.5534 78.3047 27.172 79.9719 26.4091C81.6569 25.6463 82.8895 24.5375 83.6699 23.0828C84.4503 21.6281 84.8405 19.8807 84.8405 17.8405C84.8405 15.7826 84.4415 13.9997 83.6433 12.4918C82.8629 10.9839 81.6303 9.83074 79.9453 9.03242C78.2781 8.21637 76.0877 7.80834 73.3741 7.80834H63.0516V55.255H54.8308ZM81.7278 30.6668L95.1896 55.255H85.8249L72.6291 30.6668H81.7278Z" fill="white"/>
<path d="M38.6295 17.9735C38.1152 16.3591 37.4235 14.9133 36.5544 13.636C35.703 12.3409 34.6832 11.241 33.4949 10.3363C32.3066 9.41376 30.9497 8.71302 29.4244 8.23403C27.9168 7.75503 26.2585 7.51554 24.4494 7.51554C21.381 7.51554 18.6142 8.30499 16.1488 9.88388C13.6835 11.4628 11.7325 13.7779 10.2959 16.8292C8.87699 19.8629 8.16754 23.5795 8.16754 27.9791C8.16754 32.3964 8.88586 36.1308 10.3225 39.1821C11.7591 42.2335 13.7279 44.5486 16.2287 46.1275C18.7295 47.7064 21.5761 48.4958 24.7687 48.4958C27.7306 48.4958 30.3112 47.8927 32.5105 46.6863C34.7276 45.48 36.4391 43.7769 37.6452 41.5771C38.869 39.3595 39.4809 36.7517 39.4809 33.7536L41.6092 34.1527H26.0191V27.367H47.4356V33.5673C47.4356 38.1443 46.4601 42.1182 44.5091 45.4888C42.5758 48.8418 39.8977 51.4319 36.4746 53.2591C33.0692 55.0864 29.1672 56 24.7687 56C19.838 56 15.5103 54.8647 11.7857 52.5939C8.07886 50.3231 5.18785 47.1032 3.11271 42.9342C1.03757 38.7475 0 33.7802 0 28.0323C0 23.6859 0.603032 19.783 1.8091 16.3236C3.01516 12.8643 4.70897 9.92823 6.89053 7.51554C9.08982 5.08511 11.6704 3.23124 14.6324 1.95393C17.6121 0.658878 20.8667 0.0113525 24.3962 0.0113525C27.3404 0.0113525 30.0807 0.445991 32.6169 1.31527C35.171 2.18455 37.4412 3.41751 39.4277 5.01414C41.4319 6.61078 43.0902 8.509 44.4027 10.7088C45.7152 12.8909 46.602 15.3124 47.0631 17.9735H38.6295Z" fill="white"/>
</svg>
