<svg width="926" height="167" viewBox="0 0 926 167" fill="none" xmlns="http://www.w3.org/2000/svg">
<path d="M840.058 92.0204V33.797H869.17C872.01 33.797 874.85 34.507 877.69 35.9271C880.583 37.2946 882.976 39.3984 884.87 42.2386C886.816 45.0262 887.789 48.4975 887.789 52.6525C887.789 56.8602 886.79 60.4367 884.791 63.3821C882.792 66.3274 880.294 68.5627 877.296 70.088C874.298 71.6133 871.3 72.3759 868.302 72.3759H847.632V62.3564H864.673C866.566 62.3564 868.434 61.5412 870.274 59.9108C872.168 58.2803 873.115 55.8609 873.115 52.6525C873.115 49.2864 872.168 46.9722 870.274 45.7099C868.434 44.4476 866.645 43.8165 864.91 43.8165H853.628V92.0204H840.058ZM875.876 64.7233L889.998 92.0204H875.087L861.517 64.7233H875.876ZM862.385 126.734C853.654 126.734 845.476 125.103 837.849 121.842C830.223 118.581 823.517 114.058 817.731 108.272C811.946 102.487 807.423 95.781 804.162 88.1546C800.901 80.5283 799.27 72.3496 799.27 63.6187C799.27 54.8879 800.901 46.7092 804.162 39.0828C807.423 31.4565 811.946 24.7505 817.731 18.965C823.517 13.1795 830.223 8.65625 837.849 5.39531C845.476 2.13437 853.654 0.503906 862.385 0.503906C871.116 0.503906 879.295 2.13437 886.921 5.39531C894.547 8.65625 901.253 13.1795 907.039 18.965C912.824 24.7505 917.348 31.4565 920.609 39.0828C923.87 46.7092 925.5 54.8879 925.5 63.6187C925.5 72.3496 923.87 80.5283 920.609 88.1546C917.348 95.781 912.824 102.487 907.039 108.272C901.253 114.058 894.547 118.581 886.921 121.842C879.295 125.103 871.116 126.734 862.385 126.734ZM862.385 111.113C871.116 111.113 879.058 108.983 886.211 104.722C893.417 100.409 899.149 94.6765 903.41 87.5235C907.67 80.3179 909.8 72.3496 909.8 63.6187C909.8 54.8879 907.67 46.9459 903.41 39.7929C899.149 32.5873 893.417 26.8544 886.211 22.5941C879.058 18.2812 871.116 16.1248 862.385 16.1248C853.654 16.1248 845.686 18.2812 838.48 22.5941C831.275 26.8544 825.542 32.5873 821.282 39.7929C817.021 46.9459 814.891 54.8879 814.891 63.6187C814.891 72.3496 817.021 80.3179 821.282 87.5235C825.542 94.6765 831.275 100.409 838.48 104.722C845.686 108.983 853.654 111.113 862.385 111.113Z" fill="black"/>
<path d="M688.712 164.287H662.835L720.98 2.71289H749.145L807.289 164.287H781.412L735.733 32.0613H734.47L688.712 164.287ZM693.051 101.014H776.994V121.527H693.051V101.014Z" fill="black"/>
<path d="M550.364 23.6986V2.71289H675.41V23.6986H624.997V164.287H600.698V23.6986H550.364Z" fill="black"/>
<path d="M414.54 23.6986V2.71289H539.586V23.6986H489.173V164.287H464.874V23.6986H414.54Z" fill="black"/>
<path d="M297.532 164.287V2.71289H398.831V23.6986H321.91V72.9281H393.545V93.8349H321.91V143.301H399.778V164.287H297.532Z" fill="black"/>
<path d="M163.227 164.287V2.71289H220.819C233.337 2.71289 243.724 4.86931 251.982 9.18216C260.292 13.495 266.498 19.4646 270.601 27.091C274.703 34.6648 276.754 43.422 276.754 53.3625C276.754 63.2505 274.677 71.9551 270.522 79.4763C266.419 86.9449 260.213 92.7567 251.903 96.9118C243.646 101.067 233.258 103.144 220.74 103.144H177.112V82.1587H218.531C226.42 82.1587 232.837 81.0279 237.781 78.7663C242.778 76.5046 246.433 73.2174 248.747 68.9046C251.062 64.5917 252.219 59.4111 252.219 53.3625C252.219 47.2614 251.035 41.9756 248.668 37.5049C246.354 33.0343 242.699 29.6156 237.702 27.2488C232.758 24.8294 226.263 23.6197 218.215 23.6197H187.605V164.287H163.227ZM242.988 91.3892L282.908 164.287H255.138L216.006 91.3892H242.988Z" fill="black"/>
<path d="M115.054 53.7571C113.528 48.9708 111.477 44.6843 108.9 40.8974C106.375 37.0579 103.351 33.797 99.8271 31.1146C96.3032 28.3796 92.2796 26.3021 87.7564 24.882C83.2858 23.4619 78.3681 22.7519 73.0033 22.7519C63.9042 22.7519 55.6993 25.0924 48.3885 29.7734C41.0777 34.4544 35.2922 41.3182 31.0319 50.3646C26.8243 59.3585 24.7204 70.3773 24.7204 83.421C24.7204 96.5174 26.8506 107.589 31.1108 116.635C35.3711 125.682 41.2092 132.545 48.6252 137.226C56.0412 141.907 64.4828 144.248 73.95 144.248C82.7335 144.248 90.3862 142.46 96.908 138.883C103.483 135.307 108.558 130.257 112.134 123.736C115.764 117.161 117.578 109.43 117.578 100.541L123.89 101.724H77.658V81.6065H141.167V99.9887C141.167 113.558 138.275 125.34 132.489 135.333C126.756 145.274 118.814 152.953 108.663 158.37C98.5648 163.787 86.9938 166.496 73.95 166.496C59.3284 166.496 46.4951 163.13 35.45 156.398C24.4575 149.665 15.8844 140.119 9.73067 127.759C3.57697 115.347 0.500122 100.62 0.500122 83.5788C0.500122 70.6929 2.28838 59.1218 5.86488 48.8657C9.44139 38.6095 14.4643 29.9049 20.9336 22.7519C27.4554 15.5463 35.1081 10.05 43.8916 6.26314C52.7277 2.42365 62.379 0.503906 72.8455 0.503906C81.5764 0.503906 89.7024 1.7925 97.2236 4.36969C104.797 6.94687 111.53 10.6023 117.42 15.3359C123.364 20.0695 128.281 25.6973 132.173 32.2191C136.066 38.6884 138.695 45.8677 140.063 53.7571H115.054Z" fill="black"/>
</svg>
