<svg width="151" height="28" viewBox="0 0 151 28" fill="none" xmlns="http://www.w3.org/2000/svg">
<g id="Medium length hero headline goes here">
<path id="Vector" d="M136.561 15.3859V5.9154H141.296C141.758 5.9154 142.22 6.03089 142.682 6.26188C143.153 6.48432 143.542 6.82652 143.85 7.2885C144.167 7.74192 144.325 8.30656 144.325 8.98241C144.325 9.66682 144.162 10.2486 143.837 10.7277C143.512 11.2067 143.106 11.5703 142.618 11.8184C142.131 12.0665 141.643 12.1906 141.155 12.1906H137.793V10.5608H140.565C140.873 10.5608 141.177 10.4282 141.476 10.163C141.784 9.89781 141.938 9.50428 141.938 8.98241C141.938 8.43489 141.784 8.05846 141.476 7.85314C141.177 7.64781 140.886 7.54515 140.603 7.54515H138.768V15.3859H136.561ZM142.387 10.9458L144.684 15.3859H142.259L140.052 10.9458H142.387ZM140.193 21.0323C138.773 21.0323 137.442 20.7671 136.202 20.2367C134.961 19.7063 133.871 18.9705 132.929 18.0295C131.988 17.0884 131.253 15.9976 130.722 14.7571C130.192 13.5166 129.927 12.1863 129.927 10.7662C129.927 9.34601 130.192 8.01568 130.722 6.77519C131.253 5.5347 131.988 4.44392 132.929 3.50285C133.871 2.56179 134.961 1.82605 136.202 1.29563C137.442 0.765209 138.773 0.5 140.193 0.5C141.613 0.5 142.943 0.765209 144.184 1.29563C145.424 1.82605 146.515 2.56179 147.456 3.50285C148.397 4.44392 149.133 5.5347 149.663 6.77519C150.194 8.01568 150.459 9.34601 150.459 10.7662C150.459 12.1863 150.194 13.5166 149.663 14.7571C149.133 15.9976 148.397 17.0884 147.456 18.0295C146.515 18.9705 145.424 19.7063 144.184 20.2367C142.943 20.7671 141.613 21.0323 140.193 21.0323ZM140.193 18.4914C141.613 18.4914 142.905 18.145 144.068 17.452C145.24 16.7505 146.173 15.818 146.866 14.6545C147.559 13.4824 147.905 12.1863 147.905 10.7662C147.905 9.34601 147.559 8.05418 146.866 6.89069C146.173 5.71863 145.24 4.78612 144.068 4.09315C142.905 3.39163 141.613 3.04087 140.193 3.04087C138.773 3.04087 137.477 3.39163 136.304 4.09315C135.132 4.78612 134.2 5.71863 133.507 6.89069C132.814 8.05418 132.468 9.34601 132.468 10.7662C132.468 12.1863 132.814 13.4824 133.507 14.6545C134.2 15.818 135.132 16.7505 136.304 17.452C137.477 18.145 138.773 18.4914 140.193 18.4914Z" fill="white"/>
<path id="Vector_2" d="M111.944 27.1408H107.735L117.192 0.85939H121.774L131.231 27.1408H127.022L119.592 5.63315H119.387L111.944 27.1408ZM112.65 16.8489H126.304V20.1854H112.65V16.8489Z" fill="white"/>
<path id="Vector_3" d="M89.4398 4.27289V0.85939H109.78V4.27289H101.58V27.1408H97.6271V4.27289H89.4398Z" fill="white"/>
<path id="Vector_4" d="M67.3468 4.27289V0.85939H87.6866V4.27289H79.4865V27.1408H75.5341V4.27289H67.3468Z" fill="white"/>
<path id="Vector_5" d="M48.3148 27.1408V0.85939H64.792V4.27289H52.2801V12.2805H63.9322V15.6812H52.2801V23.7273H64.946V27.1408H48.3148Z" fill="white"/>
<path id="Vector_6" d="M26.4688 27.1408V0.85939H35.8366C37.8727 0.85939 39.5624 1.21015 40.9055 1.91167C42.2572 2.61319 43.2668 3.5842 43.9341 4.82469C44.6014 6.05663 44.935 7.48106 44.935 9.09798C44.935 10.7063 44.5971 12.1222 43.9212 13.3456C43.2539 14.5604 42.2444 15.5058 40.8927 16.1816C39.5495 16.8575 37.8599 17.1954 35.8238 17.1954H28.7273V13.7819H35.4645C36.7477 13.7819 37.7915 13.598 38.5957 13.2301C39.4084 12.8622 40.003 12.3275 40.3794 11.626C40.7558 10.9245 40.944 10.0818 40.944 9.09798C40.944 8.10559 40.7515 7.2458 40.3666 6.51861C39.9901 5.79142 39.3956 5.23534 38.5828 4.85036C37.7786 4.45682 36.7221 4.26006 35.4131 4.26006H30.4341V27.1408H26.4688ZM39.4426 15.2833L45.936 27.1408H41.4188L35.0538 15.2833H39.4426Z" fill="white"/>
<path id="Vector_7" d="M18.6331 9.16207C18.385 8.38355 18.0513 7.68631 17.6321 7.07034C17.2215 6.44582 16.7296 5.9154 16.1564 5.47909C15.5832 5.03422 14.9287 4.69629 14.193 4.4653C13.4658 4.23432 12.6659 4.11882 11.7933 4.11882C10.3132 4.11882 8.97861 4.49953 7.78945 5.26093C6.60029 6.02234 5.65922 7.13878 4.96626 8.61026C4.28184 10.0732 3.93964 11.8655 3.93964 13.9872C3.93964 16.1174 4.28612 17.9182 4.97909 19.3897C5.67205 20.8612 6.62167 21.9777 7.82795 22.7391C9.03422 23.5005 10.4073 23.8812 11.9472 23.8812C13.376 23.8812 14.6207 23.5903 15.6816 23.0086C16.751 22.4268 17.5765 21.6055 18.1583 20.5447C18.7486 19.4753 19.0437 18.2177 19.0437 16.7719L20.0703 16.9644H12.5504V13.692H22.8807V16.682C22.8807 18.8893 22.4102 20.8056 21.4691 22.4311C20.5366 24.048 19.2448 25.2971 17.5936 26.1782C15.951 27.0594 14.0689 27.5 11.9472 27.5C9.56892 27.5 7.48146 26.9525 5.68489 25.8574C3.89686 24.7624 2.50238 23.2096 1.50143 21.1991C0.500475 19.1801 0 16.7847 0 14.0128C0 11.9168 0.290875 10.0347 0.872624 8.36645C1.45437 6.69819 2.27139 5.28232 3.32367 4.11882C4.38451 2.94677 5.62928 2.05276 7.05798 1.43679C8.49525 0.812263 10.0651 0.5 11.7676 0.5C13.1877 0.5 14.5095 0.7096 15.7329 1.1288C16.9648 1.548 18.0599 2.14259 19.0181 2.91255C19.9848 3.68251 20.7847 4.59791 21.4178 5.65875C22.0509 6.71103 22.4786 7.8788 22.701 9.16207H18.6331Z" fill="white"/>
</g>
</svg>
